<?xml version="1.0" encoding="UTF-8"?>
<svg id="Layer_7" data-name="Layer 7" xmlns="http://www.w3.org/2000/svg" viewBox="0 0 448 512">
  <defs>
    <style>
      .cls-1 {
        fill: #fff;
      }
    </style>
  </defs>
  <rect class="cls-1" x="48.52" y="255.48" width="64.88" height="45.08"/>
  <rect class="cls-1" x="48.52" y="193.8" width="64.88" height="40.84"/>
  <path class="cls-1" d="m384,32H64C28.7,32,0,60.7,0,96v320c0,35.3,28.7,64,64,64h320c35.3,0,64-28.7,64-64V96c0-35.3-28.7-64-64-64Zm-252.13,287.2c0,1.53-.71,2.37-1.97,2.37H32.02c-1.27,0-1.97-.85-1.97-2.37v-143.54c0-1.69.71-2.37,1.97-2.37h97.88c1.27,0,1.97.68,1.97,2.37v143.54Zm146.4-35.76l-9.87,16.61c-.42.85-.85,1.19-1.41,1.19-.42,0-.85-.17-1.27-.68-16.92-16.95-33.71-43.21-43.86-68.97l.56,46.09h22.42c1.27,0,1.97.85,1.97,2.37v14.91c0,1.52-.71,2.37-1.97,2.37l-22.28.17.28,23.89c0,1.53-.71,2.37-1.97,2.37h-15.09c-1.27,0-1.97-.85-1.97-2.37l.28-24.06h-21.72c-1.27,0-1.97-.85-1.97-2.37v-14.91c0-1.53.71-2.37,1.97-2.37h21.86l.56-45.75c-9.87,25.76-26.66,52.36-43.44,68.8-.42.51-.85.68-1.41.68-.42,0-.85-.34-1.27-1.02l-10.01-16.78c-.28-.51-.42-1.02-.42-1.36,0-.68.28-1.36.99-1.86,18.48-15.42,33.57-38.13,44-62.19h-38.5c-1.27,0-1.97-.85-1.97-2.37v-16.1c0-1.53.71-2.37,1.97-2.37h49.08v-25.76c0-1.53.71-2.37,1.97-2.37h15.09c1.27,0,1.97.85,1.97,2.37v25.76h49.22c1.27,0,1.97.85,1.97,2.37v16.1c0,1.52-.71,2.37-1.97,2.37h-39.07c11.57,24.06,27.22,46.09,44.85,61.85.56.51.85,1.19.85,1.86,0,.51-.14,1.02-.42,1.52Zm17.21-108.12c0-1.53.71-2.37,1.97-2.37h39.91c1.27,0,1.97.85,1.97,2.37v11.86c0,1.53-.71,2.37-1.97,2.37h-39.91c-1.27,0-1.97-.85-1.97-2.37v-11.86Zm45.55,142.69c0,1.53-.71,2.37-1.97,2.37h-43.16c-1.27,0-1.97-.85-1.97-2.37v-44.57c0-1.53.71-2.37,1.97-2.37h43.16c1.27,0,1.97.85,1.97,2.37v44.57Zm-43.58-70.84h39.91c1.27,0,1.97.85,1.97,2.37v11.02c0,1.52-.71,2.37-1.97,2.37h-39.91c-1.27,0-1.97-.85-1.97-2.37v-11.02c0-1.52.71-2.37,1.97-2.37Zm-1.97-10.34v-11.02c0-1.53.71-2.37,1.97-2.37h39.91c1.27,0,1.97.85,1.97,2.37v11.02c0,1.52-.71,2.37-1.97,2.37h-39.91c-1.27,0-1.97-.85-1.97-2.37Zm45.98-21.52h-49.5c-1.27,0-1.97-.85-1.97-2.37v-13.05c0-1.53.71-2.37,1.97-2.37h49.5c1.27,0,1.97.85,1.97,2.37v13.05c0,1.52-.71,2.37-1.97,2.37Zm71.93,103.03c0,1.53-.71,2.37-1.97,2.37h-60.5c-1.27,0-1.97-.85-1.97-2.37v-51.35c0-1.53.71-2.37,1.97-2.37h60.5c1.27,0,1.97.85,1.97,2.37v51.35Zm5.78-65.75c0,1.52-.71,2.37-1.97,2.37h-71.93c-1.27,0-1.97-.85-1.97-2.37v-13.56c0-1.52.71-2.37,1.97-2.37h13.26c.99-4.91,2.12-10.17,3.1-15.59h-11.42c-1.27,0-1.97-.85-1.97-2.37v-13.39c0-1.53.71-2.37,1.97-2.37h14.39l1.69-11.18h-18.62c-1.27,0-1.97-.85-1.97-2.37v-13.56c0-1.52.71-2.37,1.97-2.37h66.57c1.27,0,1.97.85,1.97,2.37v13.56c0,1.53-.71,2.37-1.97,2.37h-31.03l-1.69,11.18h27.5c1.27,0,1.97.85,1.97,2.37v31.35h6.21c1.27,0,1.97.85,1.97,2.37v13.56Z"/>
  <rect class="cls-1" x="309.02" y="287.34" width="17.07" height="16.44"/>
  <path class="cls-1" d="m375.59,236.67h18.76v-15.59h-15.8c-.99,5.42-1.97,10.68-2.96,15.59Z"/>
  <rect class="cls-1" x="366.28" y="282.42" width="29.9" height="20.17"/>
</svg>