<?xml version="1.0" encoding="UTF-8"?>
<svg id="Layer_7" data-name="Layer 7" xmlns="http://www.w3.org/2000/svg" viewBox="0 0 448 512">
  <defs>
    <style>
      .cls-1 {
        fill: #fff;
      }
    </style>
  </defs>
  <path class="cls-1" d="m364.86,236.23c-2.11-2.11-4.76-3.84-7.95-5.2-3.19-1.36-7.03-2.04-11.52-2.04-8.15,0-14.17,2.65-18.04,7.95-3.87,5.3-5.81,12.64-5.81,22.02v10.6c0,9.51,1.94,16.89,5.81,22.12,3.87,5.23,9.55,7.85,17.02,7.85,4.21,0,7.98-.71,11.31-2.14,3.33-1.43,6.12-3.4,8.36-5.91,2.24-2.51,3.98-5.43,5.2-8.77,1.22-3.33,1.83-6.9,1.83-10.7v-20.79c0-2.58-.51-5.2-1.53-7.85-1.02-2.65-2.58-5.03-4.69-7.13Z"/>
  <path class="cls-1" d="m384,32H64C28.7,32,0,60.7,0,96v320c0,35.3,28.7,64,64,64h320c35.3,0,64-28.7,64-64V96c0-35.3-28.7-64-64-64Zm-235.12,289.75H52.87v-146.98h94.59v21.61h-68.7v39.55h64.42v21.2h-64.42v43.01h70.13v21.61Zm123.74,0h-25.69v-67.68c0-16.44-7.13-24.67-21.41-24.67-2.04,0-4.45.31-7.24.92-2.79.61-5.44,1.83-7.95,3.67-2.52,1.83-4.66,4.45-6.42,7.85-1.77,3.4-2.65,7.88-2.65,13.45v66.46h-25.69v-112.32h24.26v12.84h.41c3.94-5.71,8.8-9.68,14.58-11.93,5.78-2.24,11.99-3.36,18.65-3.36,5.03,0,9.89.75,14.58,2.24,4.69,1.5,8.87,3.91,12.54,7.24,3.67,3.33,6.59,7.64,8.77,12.94,2.17,5.3,3.26,11.69,3.26,19.16v73.18Zm123.74-1.02c0,15.63-4.28,27.28-12.84,34.96-8.56,7.68-22.09,11.52-40.57,11.52-7.07,0-14.1-1.16-21.1-3.46-7-2.31-12.81-5.23-17.43-8.77l11.62-19.98c1.09.95,2.65,2,4.69,3.16,2.04,1.15,4.28,2.21,6.73,3.16,2.45.95,5.03,1.73,7.75,2.34,2.72.61,5.43.92,8.15.92,9.1,0,16-1.94,20.69-5.81s7.03-9.96,7.03-18.25v-13.86h-.41c-2.99,5.44-7.27,9.24-12.84,11.42-5.57,2.17-11.76,3.26-18.55,3.26-14.41,0-25.18-4.18-32.31-12.54s-10.7-20.15-10.7-35.37v-17.74c0-7.47,1.05-14.23,3.16-20.28,2.11-6.05,5.13-11.18,9.07-15.39,3.94-4.21,8.66-7.44,14.17-9.68,5.5-2.24,11.65-3.36,18.45-3.36,4.35,0,8.22.41,11.62,1.22,3.4.82,6.35,1.83,8.87,3.06,2.51,1.22,4.59,2.55,6.22,3.98,1.63,1.43,2.85,2.75,3.67,3.98h.2v-9.79h24.67v111.31Z"/>
</svg>