<?xml version="1.0" encoding="UTF-8"?>
<svg id="Layer_7" data-name="Layer 7" xmlns="http://www.w3.org/2000/svg" viewBox="0 0 448 512">
  <defs>
    <style>
      .cls-1 {
        fill: #fff;
      }

      .cls-2 {
        fill: none;
      }
    </style>
  </defs>
  <polygon class="cls-2" points="160.8 231.72 160.8 216.7 141.56 216.7 141.56 173.23 121.68 173.23 121.68 282.13 141.56 282.13 141.56 234.47 160.8 234.47 160.8 231.72 160.8 231.72"/>
  <path class="cls-2" d="m273.67,223.97c.37-2.69.68-5.39.95-8.08.26-2.69.47-5.22.63-7.59.16-2.37.24-4.47.24-6.3v-23.27h-97.18v17.29h77.3v7.11c0,3.77-.21,8.21-.63,13.33-.42,5.12-1.21,10.21-2.37,15.27h-91.81v2.75h0v14.38h56.79v22.78h-39.28v17.13h78.88v36.52h19.88v-53.64h-39.6v-22.78h57.74v-17.13h-22.72c.42-2.48.81-5.06,1.18-7.76Z"/>
  <path class="cls-2" d="m68.99,271.31c5.47,0,10.38-.73,14.75-2.18,4.36-1.45,8.05-3.42,11.04-5.9,3-2.48,5.28-5.33,6.86-8.56,1.58-3.23,2.37-6.68,2.37-10.34v-6.14c0-3.66-.79-7.11-2.37-10.34-1.58-3.23-3.86-6.08-6.86-8.56-3-2.48-6.68-4.44-11.04-5.9-4.37-1.45-9.28-2.18-14.75-2.18s-10.52.73-14.83,2.18c-4.31,1.45-7.97,3.42-10.96,5.9-3,2.48-5.28,5.33-6.86,8.56-1.58,3.23-2.37,6.68-2.37,10.34v6.14c0,3.66.79,7.11,2.37,10.34,1.58,3.23,3.86,6.09,6.86,8.56,3,2.48,6.65,4.44,10.96,5.9,4.31,1.45,9.25,2.18,14.83,2.18Zm-16.25-28.11v-3.88c0-1.4.34-2.8,1.03-4.2.68-1.4,1.71-2.69,3.08-3.88,1.37-1.18,3.08-2.15,5.13-2.91,2.05-.75,4.39-1.13,7.02-1.13s4.97.38,7.02,1.13c2.05.75,3.76,1.72,5.13,2.91,1.37,1.19,2.39,2.48,3.08,3.88.68,1.4,1.03,2.8,1.03,4.2v3.88c0,1.4-.34,2.8-1.03,4.2-.69,1.4-1.71,2.69-3.08,3.88-1.37,1.19-3.08,2.16-5.13,2.91-2.05.75-4.39,1.13-7.02,1.13s-4.97-.38-7.02-1.13c-2.05-.75-3.76-1.72-5.13-2.91-1.37-1.18-2.39-2.48-3.08-3.88-.69-1.4-1.03-2.8-1.03-4.2Z"/>
  <polygon class="cls-2" points="70.25 280.19 50.22 280.19 50.22 322.04 145.03 322.04 145.03 304.59 70.25 304.59 70.25 280.19"/>
  <path class="cls-2" d="m400.26,225.1h-22.72c-.11-6.03-.92-11.61-2.45-16.72-1.53-5.11-3.81-9.53-6.86-13.25-3.05-3.72-6.94-6.62-11.67-8.73-4.73-2.1-10.36-3.15-16.88-3.15s-12.49,1.08-17.27,3.23c-4.79,2.16-8.7,5.17-11.75,9.05-3.05,3.88-5.28,8.48-6.7,13.81s-2.13,11.12-2.13,17.37v17.94c0,6.36.71,12.17,2.13,17.45,1.42,5.28,3.65,9.86,6.7,13.73,3.05,3.88,6.97,6.89,11.75,9.05,4.78,2.16,10.54,3.23,17.27,3.23s12.49-1.08,17.27-3.23c4.78-2.15,8.7-5.17,11.75-9.05,3.05-3.88,5.29-8.46,6.7-13.73,1.42-5.28,2.13-11.09,2.13-17.45v-1.94h22.72v80.79h20.03v-150.26h-20.03v51.87Zm-41.8,17.13c0,9.16-1.45,16.1-4.34,20.84-2.89,4.74-7.71,7.11-14.43,7.11s-11.54-2.37-14.43-7.11c-2.89-4.74-4.34-11.69-4.34-20.84v-13.09c0-9.15,1.44-16.1,4.34-20.84,2.89-4.74,7.7-7.11,14.43-7.11s11.54,2.37,14.43,7.11c2.89,4.74,4.34,11.69,4.34,20.84v13.09Z"/>
  <polygon class="cls-2" points="110.64 188.26 78.93 188.26 78.93 171.94 59.05 171.94 59.05 188.26 26.71 188.26 26.71 205.55 110.64 205.55 110.64 188.26"/>
  <path class="cls-1" d="m384,32H64C28.7,32,0,60.7,0,96v320c0,35.3,28.7,64,64,64h320c35.3,0,64-28.7,64-64V96c0-35.3-28.7-64-64-64ZM26.71,188.26h32.34v-16.32h19.88v16.32h31.71v17.29H26.71v-17.29Zm9.62,66.41c-1.58-3.23-2.37-6.68-2.37-10.34v-6.14c0-3.66.79-7.11,2.37-10.34,1.58-3.23,3.86-6.08,6.86-8.56,3-2.48,6.65-4.44,10.96-5.9,4.31-1.45,9.25-2.18,14.83-2.18s10.38.73,14.75,2.18c4.36,1.45,8.05,3.42,11.04,5.9,3,2.48,5.28,5.33,6.86,8.56,1.58,3.23,2.37,6.68,2.37,10.34v6.14c0,3.66-.79,7.11-2.37,10.34-1.58,3.23-3.86,6.09-6.86,8.56-3,2.48-6.68,4.44-11.04,5.9-4.37,1.45-9.28,2.18-14.75,2.18s-10.52-.73-14.83-2.18c-4.31-1.45-7.97-3.42-10.96-5.9-3-2.48-5.28-5.33-6.86-8.56Zm108.69,67.38H50.22v-41.85h20.03v24.4h74.77v17.45Zm150.18-73.19h-57.74v22.78h39.6v53.64h-19.88v-36.52h-78.88v-17.13h39.28v-22.78h-56.79v-14.38h-19.24v47.66h-19.88v-108.9h19.88v43.46h19.25v15.03h91.81c1.16-5.06,1.94-10.15,2.37-15.27.42-5.12.63-9.56.63-13.33v-7.11h-77.3v-17.29h97.18v23.27c0,1.83-.08,3.93-.24,6.3-.16,2.37-.37,4.9-.63,7.59-.26,2.69-.58,5.39-.95,8.08-.37,2.69-.76,5.28-1.18,7.76h22.72v17.13Zm125.09,74.65h-20.03v-80.79h-22.72v1.94c0,6.36-.71,12.17-2.13,17.45-1.42,5.28-3.66,9.86-6.7,13.73-3.05,3.88-6.97,6.89-11.75,9.05-4.79,2.16-10.54,3.23-17.27,3.23s-12.49-1.08-17.27-3.23c-4.79-2.15-8.7-5.17-11.75-9.05-3.05-3.88-5.28-8.46-6.7-13.73-1.42-5.28-2.13-11.09-2.13-17.45v-17.94c0-6.25.71-12.04,2.13-17.37s3.65-9.94,6.7-13.81c3.05-3.88,6.97-6.89,11.75-9.05,4.78-2.15,10.54-3.23,17.27-3.23s12.15,1.05,16.88,3.15c4.73,2.1,8.62,5.01,11.67,8.73,3.05,3.72,5.34,8.13,6.86,13.25,1.52,5.12,2.34,10.69,2.45,16.72h22.72v-51.87h20.03v150.26Z"/>
  <path class="cls-1" d="m56.84,251.27c1.37,1.19,3.08,2.16,5.13,2.91,2.05.75,4.39,1.13,7.02,1.13s4.97-.38,7.02-1.13c2.05-.75,3.76-1.72,5.13-2.91,1.37-1.18,2.39-2.48,3.08-3.88.68-1.4,1.03-2.8,1.03-4.2v-3.88c0-1.4-.34-2.8-1.03-4.2-.69-1.4-1.71-2.69-3.08-3.88-1.37-1.18-3.08-2.15-5.13-2.91-2.05-.75-4.39-1.13-7.02-1.13s-4.97.38-7.02,1.13c-2.05.75-3.76,1.72-5.13,2.91-1.37,1.19-2.39,2.48-3.08,3.88-.69,1.4-1.03,2.8-1.03,4.2v3.88c0,1.4.34,2.8,1.03,4.2.68,1.4,1.71,2.69,3.08,3.88Z"/>
  <path class="cls-1" d="m339.69,201.18c-6.73,0-11.54,2.37-14.43,7.11-2.89,4.74-4.34,11.69-4.34,20.84v13.09c0,9.16,1.44,16.1,4.34,20.84,2.89,4.74,7.7,7.11,14.43,7.11s11.54-2.37,14.43-7.11c2.89-4.74,4.34-11.69,4.34-20.84v-13.09c0-9.15-1.45-16.1-4.34-20.84-2.89-4.74-7.71-7.11-14.43-7.11Z"/>
  <rect class="cls-1" x="160.8" y="231.72" width="0" height="2.75"/>
</svg>